<svg width="261" height="168" viewBox="0 0 261 168" fill="none" xmlns="http://www.w3.org/2000/svg">
<path d="M1 86.3249L33.621 61.5678L60.5462 66.3433H91.8209M91.8209 66.3433L102.28 88.964M91.8209 66.3433L136.558 41.4605M102.28 88.964L107.872 129.053L143.082 150.668M102.28 88.964L140.908 73.1295M143.082 150.668L195.276 166M143.082 150.668L195.276 153.307M136.558 41.4605L188.752 15.1954L231.729 2L186.577 41.4605L195.276 73.1295M136.558 41.4605L140.908 73.1295M195.276 73.1295L220.958 82.1778M195.276 73.1295H140.908M220.958 82.1778L260 88.964M220.958 82.1778L256.997 95.8759" stroke="white" stroke-width="3"/>
</svg>
