<svg width="960" height="102" viewBox="0 0 960 102" fill="none" xmlns="http://www.w3.org/2000/svg">
<path d="M960 4.70697L937.2 2.70697C914.3 0.70697 868.7 -3.29303 823 5.20697C777.3 13.707 731.7 34.707 686 39.207C640.3 43.707 594.7 31.707 548.8 24.707C503 17.707 457 15.707 411.2 10.507C365.3 5.40697 319.7 -2.99303 274 5.40697C228.3 13.707 182.7 38.707 137 51.207C91.3 63.707 45.7 63.707 22.8 63.707L0 63.707V101.707H22.8C45.7 101.707 91.3 101.707 137 101.707C182.7 101.707 228.3 101.707 274 101.707C319.7 101.707 365.3 101.707 411.2 101.707C457 101.707 503 101.707 548.8 101.707C594.7 101.707 640.3 101.707 686 101.707C731.7 101.707 777.3 101.707 823 101.707C868.7 101.707 914.3 101.707 937.2 101.707H960V4.70697Z" fill="url(#paint0_linear_4_26)"/>
<defs>
<linearGradient id="paint0_linear_4_26" x1="480" y1="101.707" x2="480" y2="0" gradientUnits="userSpaceOnUse">
<stop stop-color="#784BA8"/>
<stop offset="1" stop-color="#FA7099"/>
</linearGradient>
</defs>
</svg>
