<svg width="900" height="203" viewBox="0 0 900 203" fill="none" xmlns="http://www.w3.org/2000/svg">
<path d="M0 16.9207L21.5 23.3006C43 29.6804 86 42.4402 128.8 44.0351C171.7 45.6301 214.3 36.0603 257.2 23.6196C300 11.2852 343 -4.02649 385.8 0.971064C428.7 5.96862 471.3 31.0627 514.2 51.2656C557 71.4685 600 86.7802 642.8 93.798C685.7 100.922 728.3 99.8589 771.2 88.9068C814 77.8484 857 57.0075 878.5 46.4807L900 36.0603V203H878.5C857 203 814 203 771.2 203C728.3 203 685.7 203 642.8 203C600 203 557 203 514.2 203C471.3 203 428.7 203 385.8 203C343 203 300 203 257.2 203C214.3 203 171.7 203 128.8 203C86 203 43 203 21.5 203H0V16.9207Z" fill="url(#paint0_linear_1_2)"/>
<defs>
<linearGradient id="paint0_linear_1_2" x1="450" y1="0" x2="450" y2="203" gradientUnits="userSpaceOnUse">
<stop stop-color="#00FFD1"/>
<stop offset="1" stop-color="#00D4FF"/>
</linearGradient>
</defs>
</svg>
