<svg width="960" height="119" viewBox="0 0 960 119" fill="none" xmlns="http://www.w3.org/2000/svg">
<path d="M0 38L13.3 50.7C26.7 63.3 53.3 88.7 80 103.7C106.7 118.7 133.3 123.3 160 114C186.7 104.7 213.3 81.3 240 78C266.7 74.7 293.3 91.3 320 101C346.7 110.7 373.3 113.3 400 106.8C426.7 100.3 453.3 84.7 480 81.3C506.7 78 533.3 87 560 96.2C586.7 105.3 613.3 114.7 640 105C666.7 95.3 693.3 66.7 720 57.8C746.7 49 773.3 60 800 73.3C826.7 86.7 853.3 102.3 880 100C906.7 97.7 933.3 77.3 946.7 67.2L960 57V0H946.7C933.3 0 906.7 0 880 0C853.3 0 826.7 0 800 0C773.3 0 746.7 0 720 0C693.3 0 666.7 0 640 0C613.3 0 586.7 0 560 0C533.3 0 506.7 0 480 0C453.3 0 426.7 0 400 0C373.3 0 346.7 0 320 0C293.3 0 266.7 0 240 0C213.3 0 186.7 0 160 0C133.3 0 106.7 0 80 0C53.3 0 26.7 0 13.3 0H0V38Z" fill="url(#paint0_linear_3_24)"/>
<defs>
<linearGradient id="paint0_linear_3_24" x1="480" y1="0" x2="480" y2="118.807" gradientUnits="userSpaceOnUse">
<stop stop-color="#784BA8"/>
<stop offset="1" stop-color="#FA7099" stop-opacity="0.97"/>
</linearGradient>
</defs>
</svg>
