<svg width="960" height="102" viewBox="0 0 960 102" fill="none" xmlns="http://www.w3.org/2000/svg">
<g clip-path="url(#clip0_4_25)">
<path d="M0 97L22.8 99C45.7 101 91.3 105 137 96.5C182.7 88 228.3 67 274 62.5C319.7 58 365.3 70 411.2 77C457 84 503 86 548.8 91.2C594.7 96.3 640.3 104.7 686 96.3C731.7 88 777.3 63 823 50.5C868.7 38 914.3 38 937.2 38H960V0H937.2C914.3 0 868.7 0 823 0C777.3 0 731.7 0 686 0C640.3 0 594.7 0 548.8 0C503 0 457 0 411.2 0C365.3 0 319.7 0 274 0C228.3 0 182.7 0 137 0C91.3 0 45.7 0 22.8 0H0V97Z" fill="url(#paint0_linear_4_25)"/>
</g>
<defs>
<linearGradient id="paint0_linear_4_25" x1="480" y1="0" x2="480" y2="101.707" gradientUnits="userSpaceOnUse">
<stop stop-color="#090979"/>
<stop offset="0.85" stop-color="#00D4FF"/>
</linearGradient>
<clipPath id="clip0_4_25">
<rect width="960" height="101.707" fill="white"/>
</clipPath>
</defs>
</svg>
